<svg width="300" height="81" viewBox="0 0 300 81" fill="none" xmlns="http://www.w3.org/2000/svg">
<rect width="300" height="81" fill="white"/>
<rect width="300" height="81" fill="white"/>
<path d="M14.9707 19.9297L23.1738 41.5859C23.666 42.8711 24.0625 43.8555 24.3633 44.5391C24.5273 44.9492 24.9512 45.291 25.6348 45.5645C26.3184 45.8105 26.8242 45.9336 27.1523 45.9336C27.2617 45.9336 27.3164 46.1934 27.3164 46.7129C27.3164 46.8223 27.2891 46.959 27.2344 47.123C24.5 46.9863 22.9961 46.918 22.7227 46.918C22.6953 46.918 21.1094 46.9863 17.9648 47.123C17.8555 47.0137 17.8008 46.7949 17.8008 46.4668C17.8281 46.1113 17.8965 45.9336 18.0059 45.9336C18.334 45.9336 18.7441 45.8652 19.2363 45.7285C19.7285 45.5918 20.0156 45.4141 20.0977 45.1953C20.1523 44.9766 20.1797 44.7578 20.1797 44.5391C20.1797 44.1836 20.125 43.7734 20.0156 43.3086C19.9336 42.8164 19.8516 42.4336 19.7695 42.1602L19.6055 41.709L17.9238 37.0742C17.8418 36.9648 17.7598 36.9102 17.6777 36.9102C16.6113 36.8281 15.5723 36.7871 14.5605 36.7871C13.1387 36.7871 11.4023 36.8555 9.35156 36.9922L9.14648 37.1152L7.38281 41.627C6.91797 42.9941 6.68555 43.9375 6.68555 44.457C6.68555 44.8398 6.79492 45.1133 7.01367 45.2773C7.25977 45.4688 7.65625 45.6328 8.20312 45.7695C8.75 45.8789 9.14648 45.9336 9.39258 45.9336C9.47461 45.9336 9.51562 46.0977 9.51562 46.4258C9.54297 46.7539 9.5293 46.9863 9.47461 47.123C6.74023 46.9863 5.33203 46.918 5.25 46.918C4.70312 46.918 4.22461 46.9316 3.81445 46.959C3.4043 46.9863 2.93945 47.0137 2.41992 47.041C1.92773 47.0684 1.44922 47.0957 0.984375 47.123C0.875 47.0137 0.820312 46.8086 0.820312 46.5078C0.820312 46.125 0.875 45.9336 0.984375 45.9336C1.3125 45.9336 1.73633 45.8652 2.25586 45.7285C2.77539 45.5918 3.13086 45.4004 3.32227 45.1543C3.89648 44.416 4.53906 43.1309 5.25 41.2988L12.3867 22.9648C12.4414 22.8281 12.5098 22.6094 12.5918 22.3086C12.7012 22.0078 12.7832 21.7891 12.8379 21.6523C12.8926 21.4883 12.9746 21.2969 13.084 21.0781C13.1934 20.832 13.2891 20.6543 13.3711 20.5449C13.4531 20.4355 13.5488 20.3125 13.6582 20.1758C13.7949 20.0391 13.9316 19.9434 14.0684 19.8887C14.2324 19.834 14.4102 19.8066 14.6016 19.8066L14.9707 19.9297ZM10.2129 34.7363C11.6348 34.791 12.6055 34.8184 13.125 34.8184C14.3281 34.8184 15.5723 34.7773 16.8574 34.6953L16.9805 34.4902L13.6582 25.4258L10.1309 34.5723C10.1309 34.6816 10.1582 34.7363 10.2129 34.7363ZM31.623 42.2422V24.4824C31.623 23.5527 31.541 22.6777 31.377 21.8574C31.2402 21.4199 30.543 21.2012 29.2852 21.2012H28.916C28.752 21.2012 28.6699 21.0508 28.6699 20.75C28.6699 20.3125 28.752 20.0938 28.916 20.0938C29.7363 20.0117 30.4883 19.9023 31.1719 19.7656C31.8828 19.6289 32.4297 19.4922 32.8125 19.3555C33.2227 19.2188 33.5645 19.0957 33.8379 18.9863C34.1113 18.8496 34.3164 18.7402 34.4531 18.6582L34.6172 18.5352H34.6992C34.8086 18.5352 34.918 18.6172 35.0273 18.7812C35.1367 18.918 35.2051 19.0547 35.2324 19.1914C34.9316 20.0664 34.7812 21.2559 34.7812 22.7598V41.4629C34.7812 43.0488 34.8906 44.2656 35.1094 45.1133C35.1641 45.3047 35.5195 45.4961 36.1758 45.6875C36.832 45.8516 37.2969 45.9336 37.5703 45.9336C37.6523 45.9336 37.707 46.0977 37.7344 46.4258C37.7617 46.7539 37.748 46.9863 37.6934 47.123C34.959 46.9863 33.4961 46.918 33.3047 46.918C33.1406 46.918 31.6504 46.9863 28.834 47.123C28.7246 47.0137 28.6699 46.7949 28.6699 46.4668C28.6699 46.1113 28.7246 45.9336 28.834 45.9336C29.1621 45.9336 29.6406 45.8516 30.2695 45.6875C30.9258 45.4961 31.2812 45.3047 31.3359 45.1133C31.5273 44.3203 31.623 43.3633 31.623 42.2422ZM47.5781 30.6348C46.1562 30.6348 45.0625 31.25 44.2969 32.4805C43.5586 33.6836 43.1895 34.6816 43.1895 35.4746C43.1895 35.666 43.2715 35.7617 43.4355 35.7617H51.4336C51.5703 35.7617 51.6387 35.625 51.6387 35.3516C51.6387 34.4766 51.2695 33.4785 50.5312 32.3574C49.793 31.209 48.8086 30.6348 47.5781 30.6348ZM47.9883 29.1172C49.2461 29.1172 50.3535 29.3633 51.3105 29.8555C52.2676 30.3203 52.9922 30.9355 53.4844 31.7012C54.0039 32.4395 54.373 33.2051 54.5918 33.998C54.8379 34.7637 54.9609 35.5293 54.9609 36.2949C54.9609 36.8418 54.8789 37.1836 54.7148 37.3203C54.5508 37.4297 54.2363 37.4844 53.7715 37.4844H43.4355C43.2168 37.4844 43.1074 37.5527 43.1074 37.6895C43.1074 39.4121 43.627 40.998 44.666 42.4473C45.7051 43.8965 47.209 44.6211 49.1777 44.6211C49.752 44.6211 50.2988 44.5664 50.8184 44.457C51.3379 44.3477 51.7754 44.2246 52.1309 44.0879C52.5137 43.9238 52.8281 43.7734 53.0742 43.6367C53.3477 43.4727 53.5801 43.3223 53.7715 43.1855L54.0586 42.9805C54.2227 42.9805 54.3047 43.1582 54.3047 43.5137C54.3047 43.7324 54.2227 43.9785 54.0586 44.252C53.5117 45.0176 52.7051 45.7148 51.6387 46.3438C50.5723 46.9453 49.4102 47.2461 48.1523 47.2461C45.8828 47.2461 43.9277 46.3984 42.2871 44.7031C40.6738 42.9805 39.8672 40.8887 39.8672 38.4277C39.8672 35.5566 40.6328 33.2871 42.1641 31.6191C43.7227 29.9512 45.6641 29.1172 47.9883 29.1172ZM59.4727 34.4902C59.4727 33.4238 59.2812 32.6855 58.8984 32.2754C58.625 31.9473 58.2832 31.7285 57.873 31.6191C57.4902 31.4824 57.1621 31.4141 56.8887 31.4141C56.6426 31.4141 56.5195 31.3867 56.5195 31.332C56.5195 30.6758 56.6016 30.334 56.7656 30.3066C59.6641 29.8691 61.5508 29.5137 62.4258 29.2402C62.4531 29.2402 62.4941 29.2402 62.5488 29.2402C62.6035 29.2129 62.6309 29.1992 62.6309 29.1992C62.7402 29.1992 62.8086 29.3223 62.8359 29.5684C62.8633 29.7871 62.8633 29.9512 62.8359 30.0605C62.6992 31.1543 62.6309 32.1387 62.6309 33.0137V44.2109C62.6309 47.6836 62.0977 50.2539 61.0312 51.9219C60.3477 52.9883 59.4727 53.9316 58.4062 54.752C57.3672 55.5723 56.4102 56.1465 55.5352 56.4746C55.2891 56.3105 55.1113 56.1055 55.002 55.8594C54.9473 55.7227 54.9473 55.627 55.002 55.5723L55.4941 55.3262C55.8223 55.1621 56.1914 54.875 56.6016 54.4648C57.0391 54.0547 57.4766 53.5078 57.9141 52.8242C58.3516 52.1406 58.7207 51.1289 59.0215 49.7891C59.3223 48.4492 59.4727 46.9043 59.4727 45.1543V34.4902ZM58.9805 24.1543C58.5977 23.7441 58.4062 23.252 58.4062 22.6777C58.4062 22.1035 58.5977 21.625 58.9805 21.2422C59.3906 20.832 59.8828 20.627 60.457 20.627C61.0312 20.627 61.5098 20.832 61.8926 21.2422C62.3027 21.625 62.5078 22.1035 62.5078 22.6777C62.5078 23.252 62.3027 23.7441 61.8926 24.1543C61.5098 24.5371 61.0312 24.7285 60.457 24.7285C59.8828 24.7285 59.3906 24.5371 58.9805 24.1543ZM71.4902 44.375C71.9551 44.7578 72.5566 44.9492 73.2949 44.9492C74.0332 44.9492 74.7441 44.7305 75.4277 44.293C76.1113 43.8281 76.4531 43.3633 76.4531 42.8984V38.6738C76.2344 38.7832 75.7012 38.9746 74.8535 39.248C74.0059 39.5215 73.3359 39.7676 72.8438 39.9863C72.3789 40.1777 71.9141 40.5195 71.4492 41.0117C71.0117 41.4766 70.793 42.0234 70.793 42.6523C70.793 43.3906 71.0254 43.9648 71.4902 44.375ZM75.3457 29.1172C76.8496 29.1172 77.9297 29.4863 78.5859 30.2246C79.2422 30.9355 79.5703 32.0977 79.5703 33.7109V43.1855C79.5703 43.7598 79.7207 44.2383 80.0215 44.6211C80.3223 45.0039 80.7324 45.1953 81.252 45.1953C81.6348 45.1953 82.1133 45.0039 82.6875 44.6211C82.7969 44.6211 82.8516 44.7305 82.8516 44.9492C82.8516 45.3047 82.7832 45.5918 82.6465 45.8105C81.5254 46.7676 80.5684 47.2461 79.7754 47.2461C79.1465 47.2461 78.5449 46.9863 77.9707 46.4668C77.3965 45.9473 77 45.4004 76.7812 44.8262C76.7539 44.8262 76.6445 44.9219 76.4531 45.1133C76.2891 45.2773 76.0566 45.4824 75.7559 45.7285C75.4551 45.9473 75.0996 46.1797 74.6895 46.4258C74.3066 46.6719 73.8418 46.877 73.2949 47.041C72.7754 47.2051 72.2422 47.2871 71.6953 47.2871C70.4375 47.2871 69.3984 46.959 68.5781 46.3027C67.7578 45.6191 67.3477 44.6074 67.3477 43.2676C67.3477 42.666 67.498 42.1055 67.7988 41.5859C68.0996 41.0391 68.4551 40.6016 68.8652 40.2734C69.2754 39.918 69.8359 39.5625 70.5469 39.207C71.2578 38.8516 71.8594 38.5918 72.3516 38.4277C72.8711 38.2363 73.541 38.0039 74.3613 37.7305C75.1816 37.457 75.7559 37.252 76.084 37.1152C76.3301 37.0332 76.4531 36.8281 76.4531 36.5V33.4238C76.4531 32.5488 76.1797 31.8789 75.6328 31.4141C75.0859 30.9219 74.4297 30.6758 73.6641 30.6758C72.8438 30.6758 72.1602 30.9629 71.6133 31.5371C71.0664 32.084 70.793 32.8086 70.793 33.7109C70.793 34.668 70.2324 35.1465 69.1113 35.1465C68.3457 35.1465 67.8125 34.8867 67.5117 34.3672C67.5117 33.1914 68.373 32.0293 70.0957 30.8809C71.8184 29.7051 73.5684 29.1172 75.3457 29.1172ZM96.3047 29.0352C98.2188 29.0352 99.5586 29.7188 100.324 31.0859C101.09 32.4531 101.473 34.668 101.473 37.7305V41.4629C101.473 43.0488 101.582 44.2656 101.801 45.1133C101.855 45.3047 102.211 45.4961 102.867 45.6875C103.523 45.8516 103.988 45.9336 104.262 45.9336C104.344 45.9336 104.398 46.0977 104.426 46.4258C104.453 46.7539 104.439 46.9863 104.385 47.123C101.65 46.9863 100.188 46.918 99.9961 46.918C99.9414 46.918 98.5059 46.9863 95.6895 47.123C95.5801 47.0137 95.5254 46.7949 95.5254 46.4668C95.5254 46.1113 95.5801 45.9336 95.6895 45.9336C96.0176 45.9336 96.4688 45.8516 97.043 45.6875C97.6445 45.4961 97.9727 45.3047 98.0273 45.1133C98.2188 44.3203 98.3145 43.3633 98.3145 42.2422V38.1406C98.3145 35.5977 97.9863 33.8613 97.3301 32.9316C96.6738 32.002 95.6074 31.5371 94.1309 31.5371C93.2559 31.5371 92.4082 31.8652 91.5879 32.5215C90.7949 33.1504 90.3984 33.7246 90.3984 34.2441V41.4629C90.3984 43.0488 90.5078 44.2656 90.7266 45.1133C90.7812 45.3047 91.1367 45.4961 91.793 45.6875C92.4492 45.8516 92.9141 45.9336 93.1875 45.9336C93.2695 45.9336 93.3242 46.0977 93.3516 46.4258C93.3789 46.7539 93.3652 46.9863 93.3105 47.123C90.5762 46.9863 89.1133 46.918 88.9219 46.918C88.7578 46.918 87.2676 46.9863 84.4512 47.123C84.3418 47.0137 84.2871 46.7949 84.2871 46.4668C84.2871 46.1113 84.3418 45.9336 84.4512 45.9336C84.7793 45.9336 85.2578 45.8516 85.8867 45.6875C86.543 45.4961 86.8984 45.3047 86.9531 45.1133C87.1445 44.3203 87.2402 43.3633 87.2402 42.2422V34.4902C87.2402 33.4238 87.0488 32.6855 86.666 32.2754C86.3926 31.9473 86.0508 31.7285 85.6406 31.6191C85.2578 31.4824 84.9297 31.4141 84.6562 31.4141C84.4102 31.4141 84.2871 31.3867 84.2871 31.332C84.2871 30.6758 84.3691 30.334 84.5332 30.3066C87.4316 29.8691 89.3184 29.5137 90.1934 29.2402C90.2207 29.2402 90.2617 29.2402 90.3164 29.2402C90.3711 29.2129 90.3984 29.1992 90.3984 29.1992C90.5078 29.1992 90.5762 29.3223 90.6035 29.5684C90.6309 29.7871 90.6309 29.9512 90.6035 30.0605C90.4941 30.8262 90.4395 31.373 90.4395 31.7012C90.4395 31.8105 90.4668 31.8652 90.5215 31.8652C90.5488 31.8652 90.5898 31.8379 90.6445 31.7832C91.2734 31.127 92.1211 30.5117 93.1875 29.9375C94.2812 29.3359 95.3203 29.0352 96.3047 29.0352ZM115.541 30.6758C113.955 30.6758 112.711 31.3867 111.809 32.8086C110.906 34.2305 110.455 35.8848 110.455 37.7715C110.455 39.7676 110.988 41.5039 112.055 42.9805C113.121 44.4297 114.598 45.1543 116.484 45.1543C117.414 45.1543 118.139 44.9492 118.658 44.5391C119.178 44.1016 119.438 43.5273 119.438 42.8164V33.0547C119.438 32.4805 119.123 31.9473 118.494 31.4551C117.893 30.9355 116.908 30.6758 115.541 30.6758ZM116.074 28.9531C117.25 28.9531 118.275 29.1855 119.15 29.6504C119.342 29.6504 119.438 29.4043 119.438 28.9121V24.4824C119.438 23.5527 119.355 22.6777 119.191 21.8574C119.055 21.4199 118.357 21.2012 117.1 21.2012H116.73C116.566 21.2012 116.484 21.0508 116.484 20.75C116.484 20.3125 116.566 20.0938 116.73 20.0938C117.551 20.0117 118.303 19.9023 118.986 19.7656C119.697 19.6289 120.244 19.4922 120.627 19.3555C121.037 19.2188 121.379 19.0957 121.652 18.9863C121.926 18.8496 122.131 18.7402 122.268 18.6582L122.432 18.5352H122.514C122.623 18.5352 122.732 18.6172 122.842 18.7812C122.951 18.918 123.02 19.0547 123.047 19.1914C122.746 20.0664 122.596 21.2559 122.596 22.7598V41.2168C122.596 42.5293 122.678 43.5684 122.842 44.334C122.896 44.5254 123.047 44.6758 123.293 44.7852C123.539 44.8945 123.785 44.9629 124.031 44.9902C124.305 45.0176 124.564 45.0312 124.811 45.0312L125.18 45.0723C125.262 45.0996 125.303 45.2637 125.303 45.5645C125.303 45.9746 125.221 46.1797 125.057 46.1797C124.646 46.207 124.182 46.2617 123.662 46.3438C123.17 46.4258 122.691 46.5215 122.227 46.6309C121.789 46.7129 121.379 46.8086 120.996 46.918C120.613 47 120.299 47.082 120.053 47.1641L119.684 47.2461C119.52 47.2461 119.438 47.0137 119.438 46.5488V46.0566C119.438 45.8926 119.383 45.8379 119.273 45.8926C117.742 46.7402 116.293 47.1641 114.926 47.1641C112.656 47.1641 110.756 46.3574 109.225 44.7441C107.693 43.1309 106.928 41.2031 106.928 38.9609C106.928 36.3086 107.857 33.9844 109.717 31.9883C111.604 29.9648 113.723 28.9531 116.074 28.9531ZM137.771 29.0762C139.385 29.0762 140.451 29.4727 140.971 30.2656C140.971 31.2227 140.82 31.9199 140.52 32.3574C140.219 32.7949 139.85 33.0137 139.412 33.0137C138.92 33.0137 138.469 32.7812 138.059 32.3164C137.648 31.8516 137.088 31.6191 136.377 31.6191C135.529 31.6191 134.791 32.0156 134.162 32.8086C133.533 33.6016 133.219 34.4355 133.219 35.3105V41.4629C133.219 43.0488 133.328 44.2656 133.547 45.1133C133.602 45.3047 133.957 45.4961 134.613 45.6875C135.297 45.8516 135.775 45.9336 136.049 45.9336C136.131 45.9336 136.186 46.0977 136.213 46.4258C136.24 46.7539 136.227 46.9863 136.172 47.123C133.438 46.9863 131.961 46.918 131.742 46.918C131.578 46.918 130.088 46.9863 127.271 47.123C127.162 47.0137 127.107 46.7949 127.107 46.4668C127.107 46.1113 127.162 45.9336 127.271 45.9336C127.6 45.9336 128.078 45.8516 128.707 45.6875C129.363 45.4961 129.719 45.3047 129.773 45.1133C129.965 44.3203 130.061 43.3633 130.061 42.2422V34.4902C130.061 33.4238 129.869 32.6855 129.486 32.2754C129.213 31.9473 128.871 31.7285 128.461 31.6191C128.078 31.4824 127.75 31.4141 127.477 31.4141C127.23 31.4141 127.107 31.3867 127.107 31.332C127.107 30.6758 127.189 30.334 127.354 30.3066C130.252 29.8691 132.139 29.5137 133.014 29.2402C133.041 29.2402 133.082 29.2402 133.137 29.2402C133.191 29.2129 133.219 29.1992 133.219 29.1992C133.328 29.1992 133.396 29.3223 133.424 29.5684C133.451 29.7871 133.451 29.9512 133.424 30.0605L133.178 32.1113C133.67 31.373 134.34 30.6895 135.188 30.0605C136.062 29.4043 136.924 29.0762 137.771 29.0762ZM147.082 44.375C147.547 44.7578 148.148 44.9492 148.887 44.9492C149.625 44.9492 150.336 44.7305 151.02 44.293C151.703 43.8281 152.045 43.3633 152.045 42.8984V38.6738C151.826 38.7832 151.293 38.9746 150.445 39.248C149.598 39.5215 148.928 39.7676 148.436 39.9863C147.971 40.1777 147.506 40.5195 147.041 41.0117C146.604 41.4766 146.385 42.0234 146.385 42.6523C146.385 43.3906 146.617 43.9648 147.082 44.375ZM150.938 29.1172C152.441 29.1172 153.521 29.4863 154.178 30.2246C154.834 30.9355 155.162 32.0977 155.162 33.7109V43.1855C155.162 43.7598 155.312 44.2383 155.613 44.6211C155.914 45.0039 156.324 45.1953 156.844 45.1953C157.227 45.1953 157.705 45.0039 158.279 44.6211C158.389 44.6211 158.443 44.7305 158.443 44.9492C158.443 45.3047 158.375 45.5918 158.238 45.8105C157.117 46.7676 156.16 47.2461 155.367 47.2461C154.738 47.2461 154.137 46.9863 153.562 46.4668C152.988 45.9473 152.592 45.4004 152.373 44.8262C152.346 44.8262 152.236 44.9219 152.045 45.1133C151.881 45.2773 151.648 45.4824 151.348 45.7285C151.047 45.9473 150.691 46.1797 150.281 46.4258C149.898 46.6719 149.434 46.877 148.887 47.041C148.367 47.2051 147.834 47.2871 147.287 47.2871C146.029 47.2871 144.99 46.959 144.17 46.3027C143.35 45.6191 142.939 44.6074 142.939 43.2676C142.939 42.666 143.09 42.1055 143.391 41.5859C143.691 41.0391 144.047 40.6016 144.457 40.2734C144.867 39.918 145.428 39.5625 146.139 39.207C146.85 38.8516 147.451 38.5918 147.943 38.4277C148.463 38.2363 149.133 38.0039 149.953 37.7305C150.773 37.457 151.348 37.252 151.676 37.1152C151.922 37.0332 152.045 36.8281 152.045 36.5V33.4238C152.045 32.5488 151.771 31.8789 151.225 31.4141C150.678 30.9219 150.021 30.6758 149.256 30.6758C148.436 30.6758 147.752 30.9629 147.205 31.5371C146.658 32.084 146.385 32.8086 146.385 33.7109C146.385 34.668 145.824 35.1465 144.703 35.1465C143.938 35.1465 143.404 34.8867 143.104 34.3672C143.104 33.1914 143.965 32.0293 145.688 30.8809C147.41 29.7051 149.16 29.1172 150.938 29.1172ZM169.887 33.793C169.887 29.9102 171.186 26.5879 173.783 23.8262C176.381 21.0371 179.566 19.6426 183.34 19.6426C185.281 19.6426 188.521 20.2578 193.061 21.4883C193.17 24.6055 193.225 26.3008 193.225 26.5742C193.225 26.9844 192.938 27.1895 192.363 27.1895C192.09 27.1895 191.912 27.1211 191.83 26.9844C191.092 23.2383 188.303 21.3652 183.463 21.3652C180.729 21.3652 178.445 22.5273 176.613 24.8516C174.781 27.1758 173.865 29.9785 173.865 33.2598C173.865 36.2949 174.863 39.0977 176.859 41.668C178.883 44.2109 181.412 45.4824 184.447 45.4824C186.854 45.4824 188.631 45.1816 189.779 44.5801C189.971 44.498 190.066 44.293 190.066 43.9648L190.025 40.6016V40.3145C190.025 38.5371 189.916 37.3613 189.697 36.7871C189.588 36.5137 189.137 36.2949 188.344 36.1309C187.578 35.9668 186.977 35.8848 186.539 35.8848C186.43 35.8848 186.375 35.7207 186.375 35.3926C186.375 35.0371 186.43 34.8047 186.539 34.6953C190.039 34.832 191.83 34.9004 191.912 34.9004C192.131 34.9004 193.607 34.832 196.342 34.6953C196.396 34.8594 196.424 35.0508 196.424 35.2695C196.424 35.6797 196.369 35.8848 196.26 35.8848C196.096 35.8848 195.713 35.9805 195.111 36.1719C194.537 36.3359 194.127 36.4863 193.881 36.623C193.607 36.8145 193.471 37.7305 193.471 39.3711C193.471 39.9453 193.484 40.5742 193.512 41.2578C193.566 41.9141 193.594 42.2695 193.594 42.3242C193.594 42.8164 193.689 43.2949 193.881 43.7598C194.072 44.2246 194.168 44.498 194.168 44.5801C194.168 44.7988 193.826 45.0449 193.143 45.3184C193.088 45.3457 192.814 45.4551 192.322 45.6465C191.857 45.8105 191.557 45.9199 191.42 45.9746C191.283 46.0293 190.969 46.1387 190.477 46.3027C190.012 46.4395 189.629 46.5352 189.328 46.5898C189.055 46.6445 188.645 46.7266 188.098 46.8359C187.578 46.9453 187.072 47.0137 186.58 47.041C186.115 47.0957 185.555 47.1367 184.898 47.1641C184.27 47.2188 183.6 47.2461 182.889 47.2461C179.279 47.2461 176.203 45.9199 173.66 43.2676C171.145 40.6152 169.887 37.457 169.887 33.793ZM201.469 24.1543C201.086 23.7441 200.895 23.252 200.895 22.6777C200.895 22.1035 201.086 21.625 201.469 21.2422C201.879 20.832 202.371 20.627 202.945 20.627C203.52 20.627 203.998 20.832 204.381 21.2422C204.791 21.625 204.996 22.1035 204.996 22.6777C204.996 23.252 204.791 23.7441 204.381 24.1543C203.998 24.5371 203.52 24.7285 202.945 24.7285C202.371 24.7285 201.879 24.5371 201.469 24.1543ZM204.832 41.4629C204.832 43.0488 204.941 44.2656 205.16 45.1133C205.215 45.3047 205.57 45.4961 206.227 45.6875C206.883 45.8516 207.348 45.9336 207.621 45.9336C207.703 45.9336 207.758 46.0977 207.785 46.4258C207.812 46.7539 207.799 46.9863 207.744 47.123C205.01 46.9863 203.547 46.918 203.355 46.918C203.164 46.918 201.674 46.9863 198.885 47.123C198.775 47.0137 198.721 46.7949 198.721 46.4668C198.721 46.1113 198.775 45.9336 198.885 45.9336C199.213 45.9336 199.691 45.8516 200.32 45.6875C200.977 45.4961 201.332 45.3047 201.387 45.1133C201.578 44.3203 201.674 43.3633 201.674 42.2422V34.4902C201.674 33.4238 201.482 32.6855 201.1 32.2754C200.826 31.9473 200.484 31.7285 200.074 31.6191C199.691 31.4824 199.363 31.4141 199.09 31.4141C198.844 31.4141 198.721 31.3867 198.721 31.332C198.721 30.6758 198.803 30.334 198.967 30.3066C201.865 29.8691 203.752 29.5137 204.627 29.2402L204.709 29.1992C204.764 29.1992 204.805 29.1992 204.832 29.1992C204.941 29.1992 205.01 29.3223 205.037 29.5684C205.064 29.7871 205.064 29.9512 205.037 30.0605C204.9 31.1543 204.832 32.1387 204.832 33.0137V41.4629ZM226.283 33.0137V41.2168C226.283 42.3926 226.379 43.4316 226.57 44.334C226.625 44.5254 226.775 44.6758 227.021 44.7852C227.268 44.8945 227.527 44.9629 227.801 44.9902C228.074 45.0176 228.348 45.0312 228.621 45.0312L228.99 45.0723C229.072 45.0996 229.113 45.25 229.113 45.5234C229.113 45.6055 229.072 45.7422 228.99 45.9336C228.936 46.0977 228.867 46.1797 228.785 46.1797C228.375 46.207 227.91 46.2617 227.391 46.3438C226.898 46.4258 226.434 46.5215 225.996 46.6309C225.559 46.7402 225.148 46.8496 224.766 46.959C224.383 47.0684 224.082 47.1641 223.863 47.2461L223.494 47.3281C223.275 47.3281 223.166 47.1094 223.166 46.6719V44.5801L223.084 44.375C221.279 46.3164 219.488 47.2871 217.711 47.2871C216.699 47.2871 215.824 47.041 215.086 46.5488C214.375 46.0293 213.842 45.3594 213.486 44.5391C213.158 43.6914 212.926 42.8848 212.789 42.1191C212.652 41.3262 212.584 40.5059 212.584 39.6582V34.4902C212.584 33.4238 212.393 32.6855 212.01 32.2754C211.736 31.9473 211.395 31.7285 210.984 31.6191C210.602 31.4824 210.273 31.4141 210 31.4141C209.754 31.4141 209.631 31.3867 209.631 31.332C209.631 30.6758 209.713 30.334 209.877 30.3066C212.775 29.8691 214.662 29.5137 215.537 29.2402C215.564 29.2402 215.605 29.2402 215.66 29.2402C215.715 29.2129 215.742 29.1992 215.742 29.1992C215.852 29.1992 215.92 29.3223 215.947 29.5684C215.975 29.7871 215.975 29.9512 215.947 30.0605C215.783 31.373 215.701 32.3848 215.701 33.0957V38.6328C215.701 40.7383 216.016 42.2969 216.645 43.3086C217.273 44.293 218.299 44.7852 219.721 44.7852C220.541 44.7852 221.32 44.4707 222.059 43.8418C222.797 43.1855 223.166 42.625 223.166 42.1602V34.4902C223.166 33.4238 222.975 32.6855 222.592 32.2754C222.318 31.9473 221.977 31.7285 221.566 31.6191C221.184 31.4824 220.855 31.4141 220.582 31.4141C220.336 31.4141 220.213 31.3867 220.213 31.332C220.213 30.6758 220.295 30.334 220.459 30.3066C223.357 29.8691 225.244 29.5137 226.119 29.2402C226.146 29.2402 226.188 29.2402 226.242 29.2402C226.297 29.2129 226.324 29.1992 226.324 29.1992C226.434 29.1992 226.502 29.3223 226.529 29.5684C226.557 29.7871 226.557 29.9512 226.529 30.0605C226.365 31.373 226.283 32.3574 226.283 33.0137ZM239.818 30.6758C238.232 30.6758 236.988 31.3867 236.086 32.8086C235.184 34.2305 234.732 35.8848 234.732 37.7715C234.732 39.7676 235.266 41.5039 236.332 42.9805C237.398 44.4297 238.875 45.1543 240.762 45.1543C241.691 45.1543 242.416 44.9492 242.936 44.5391C243.455 44.1016 243.715 43.5273 243.715 42.8164V33.0547C243.715 32.4805 243.4 31.9473 242.771 31.4551C242.17 30.9355 241.186 30.6758 239.818 30.6758ZM240.352 28.9531C241.527 28.9531 242.553 29.1855 243.428 29.6504C243.619 29.6504 243.715 29.4043 243.715 28.9121V24.4824C243.715 23.5527 243.633 22.6777 243.469 21.8574C243.332 21.4199 242.635 21.2012 241.377 21.2012H241.008C240.844 21.2012 240.762 21.0508 240.762 20.75C240.762 20.3125 240.844 20.0938 241.008 20.0938C241.828 20.0117 242.58 19.9023 243.264 19.7656C243.975 19.6289 244.521 19.4922 244.904 19.3555C245.314 19.2188 245.656 19.0957 245.93 18.9863C246.203 18.8496 246.408 18.7402 246.545 18.6582L246.709 18.5352H246.791C246.9 18.5352 247.01 18.6172 247.119 18.7812C247.229 18.918 247.297 19.0547 247.324 19.1914C247.023 20.0664 246.873 21.2559 246.873 22.7598V41.2168C246.873 42.5293 246.955 43.5684 247.119 44.334C247.174 44.5254 247.324 44.6758 247.57 44.7852C247.816 44.8945 248.062 44.9629 248.309 44.9902C248.582 45.0176 248.842 45.0312 249.088 45.0312L249.457 45.0723C249.539 45.0996 249.58 45.2637 249.58 45.5645C249.58 45.9746 249.498 46.1797 249.334 46.1797C248.924 46.207 248.459 46.2617 247.939 46.3438C247.447 46.4258 246.969 46.5215 246.504 46.6309C246.066 46.7129 245.656 46.8086 245.273 46.918C244.891 47 244.576 47.082 244.33 47.1641L243.961 47.2461C243.797 47.2461 243.715 47.0137 243.715 46.5488V46.0566C243.715 45.8926 243.66 45.8379 243.551 45.8926C242.02 46.7402 240.57 47.1641 239.203 47.1641C236.934 47.1641 235.033 46.3574 233.502 44.7441C231.971 43.1309 231.205 41.2031 231.205 38.9609C231.205 36.3086 232.135 33.9844 233.994 31.9883C235.881 29.9648 238 28.9531 240.352 28.9531ZM254.092 24.1543C253.709 23.7441 253.518 23.252 253.518 22.6777C253.518 22.1035 253.709 21.625 254.092 21.2422C254.502 20.832 254.994 20.627 255.568 20.627C256.143 20.627 256.621 20.832 257.004 21.2422C257.414 21.625 257.619 22.1035 257.619 22.6777C257.619 23.252 257.414 23.7441 257.004 24.1543C256.621 24.5371 256.143 24.7285 255.568 24.7285C254.994 24.7285 254.502 24.5371 254.092 24.1543ZM257.455 41.4629C257.455 43.0488 257.564 44.2656 257.783 45.1133C257.838 45.3047 258.193 45.4961 258.85 45.6875C259.506 45.8516 259.971 45.9336 260.244 45.9336C260.326 45.9336 260.381 46.0977 260.408 46.4258C260.436 46.7539 260.422 46.9863 260.367 47.123C257.633 46.9863 256.17 46.918 255.979 46.918C255.787 46.918 254.297 46.9863 251.508 47.123C251.398 47.0137 251.344 46.7949 251.344 46.4668C251.344 46.1113 251.398 45.9336 251.508 45.9336C251.836 45.9336 252.314 45.8516 252.943 45.6875C253.6 45.4961 253.955 45.3047 254.01 45.1133C254.201 44.3203 254.297 43.3633 254.297 42.2422V34.4902C254.297 33.4238 254.105 32.6855 253.723 32.2754C253.449 31.9473 253.107 31.7285 252.697 31.6191C252.314 31.4824 251.986 31.4141 251.713 31.4141C251.467 31.4141 251.344 31.3867 251.344 31.332C251.344 30.6758 251.426 30.334 251.59 30.3066C254.488 29.8691 256.375 29.5137 257.25 29.2402L257.332 29.1992C257.387 29.1992 257.428 29.1992 257.455 29.1992C257.564 29.1992 257.633 29.3223 257.66 29.5684C257.688 29.7871 257.688 29.9512 257.66 30.0605C257.523 31.1543 257.455 32.1387 257.455 33.0137V41.4629ZM270.539 29.1172C273.547 29.1172 275.625 29.8145 276.773 31.209C276.773 33.041 276.268 33.957 275.256 33.957C274.791 33.957 274.436 33.8613 274.189 33.6699C273.943 33.4512 273.629 33.0684 273.246 32.5215C272.398 31.2637 271.387 30.6348 270.211 30.6348C269.09 30.6348 268.064 31.168 267.135 32.2344C266.232 33.3008 265.781 34.8867 265.781 36.9922C265.781 39.1797 266.314 40.998 267.381 42.4473C268.475 43.8965 269.979 44.6211 271.893 44.6211C272.467 44.6211 273.014 44.5664 273.533 44.457C274.053 44.3477 274.49 44.2246 274.846 44.0879C275.229 43.9238 275.543 43.7734 275.789 43.6367C276.062 43.4727 276.295 43.3223 276.486 43.1855L276.773 42.9805C276.938 42.9805 277.02 43.1582 277.02 43.5137C277.02 43.7324 276.938 43.9785 276.773 44.252C276.227 45.0176 275.42 45.7148 274.354 46.3438C273.287 46.9453 272.125 47.2461 270.867 47.2461C268.598 47.2461 266.643 46.3984 265.002 44.7031C263.389 42.9805 262.582 40.8887 262.582 38.4277C262.582 35.9121 263.266 33.7383 264.633 31.9062C266 30.0469 267.969 29.1172 270.539 29.1172ZM286.904 30.6348C285.482 30.6348 284.389 31.25 283.623 32.4805C282.885 33.6836 282.516 34.6816 282.516 35.4746C282.516 35.666 282.598 35.7617 282.762 35.7617H290.76C290.896 35.7617 290.965 35.625 290.965 35.3516C290.965 34.4766 290.596 33.4785 289.857 32.3574C289.119 31.209 288.135 30.6348 286.904 30.6348ZM287.314 29.1172C288.572 29.1172 289.68 29.3633 290.637 29.8555C291.594 30.3203 292.318 30.9355 292.811 31.7012C293.33 32.4395 293.699 33.2051 293.918 33.998C294.164 34.7637 294.287 35.5293 294.287 36.2949C294.287 36.8418 294.205 37.1836 294.041 37.3203C293.877 37.4297 293.562 37.4844 293.098 37.4844H282.762C282.543 37.4844 282.434 37.5527 282.434 37.6895C282.434 39.4121 282.953 40.998 283.992 42.4473C285.031 43.8965 286.535 44.6211 288.504 44.6211C289.078 44.6211 289.625 44.5664 290.145 44.457C290.664 44.3477 291.102 44.2246 291.457 44.0879C291.84 43.9238 292.154 43.7734 292.4 43.6367C292.674 43.4727 292.906 43.3223 293.098 43.1855L293.385 42.9805C293.549 42.9805 293.631 43.1582 293.631 43.5137C293.631 43.7324 293.549 43.9785 293.385 44.252C292.838 45.0176 292.031 45.7148 290.965 46.3438C289.898 46.9453 288.736 47.2461 287.479 47.2461C285.209 47.2461 283.254 46.3984 281.613 44.7031C280 42.9805 279.193 40.8887 279.193 38.4277C279.193 35.5566 279.959 33.2871 281.49 31.6191C283.049 29.9512 284.99 29.1172 287.314 29.1172Z" fill="black"/>
<path d="M52.334 70V62.486L48.993 68.323H48.421L45.067 62.486V70H44.157V60.77H45.093L48.694 67.088L52.321 60.77H53.244V70H52.334ZM58.4174 60.77H59.1844L63.0194 70H62.0574L60.8614 67.114H56.7144L55.5314 70H54.5564L58.4174 60.77ZM60.6534 66.399L58.7944 61.836L56.9094 66.399H60.6534ZM67.7178 70.065C67.0678 70.065 66.4784 69.935 65.9498 69.675C65.4211 69.4063 64.9661 69.051 64.5848 68.609C64.2034 68.167 63.9088 67.6687 63.7008 67.114C63.4928 66.5507 63.3888 65.9743 63.3888 65.385C63.3888 64.7697 63.4971 64.1847 63.7138 63.63C63.9304 63.0667 64.2338 62.5683 64.6238 62.135C65.0224 61.693 65.4861 61.3463 66.0148 61.095C66.5434 60.835 67.1154 60.705 67.7308 60.705C68.3721 60.705 68.9571 60.8393 69.4858 61.108C70.0144 61.3767 70.4694 61.7363 70.8508 62.187C71.2408 62.6377 71.5354 63.1403 71.7348 63.695C71.9428 64.2497 72.0468 64.8173 72.0468 65.398C72.0468 66.022 71.9298 66.6243 71.6958 67.205C71.4704 67.777 71.1584 68.2797 70.7598 68.713L71.8388 70H70.9418L70.2528 69.181C69.8974 69.4583 69.5031 69.675 69.0698 69.831C68.6451 69.987 68.1944 70.065 67.7178 70.065ZM67.7178 69.246C68.1078 69.246 68.4674 69.1853 68.7968 69.064C69.1348 68.934 69.4381 68.7563 69.7068 68.531L68.5498 67.166H69.4468L70.2008 68.05C70.5041 67.686 70.7338 67.27 70.8898 66.802C71.0544 66.334 71.1368 65.8617 71.1368 65.385C71.1368 64.8823 71.0544 64.4013 70.8898 63.942C70.7251 63.4827 70.4868 63.071 70.1748 62.707C69.8714 62.343 69.5118 62.057 69.0958 61.849C68.6798 61.6323 68.2204 61.524 67.7178 61.524C67.1978 61.524 66.7254 61.6367 66.3008 61.862C65.8848 62.0787 65.5251 62.3733 65.2218 62.746C64.9271 63.11 64.6974 63.5217 64.5328 63.981C64.3768 64.4403 64.2988 64.9083 64.2988 65.385C64.2988 65.8877 64.3811 66.3687 64.5458 66.828C64.7104 67.2873 64.9444 67.699 65.2478 68.063C65.5511 68.427 65.9108 68.7173 66.3268 68.934C66.7514 69.142 67.2151 69.246 67.7178 69.246ZM77.4941 70.065C76.7661 70.065 76.1507 69.935 75.6481 69.675C75.1541 69.415 74.7554 69.064 74.4521 68.622C74.1487 68.18 73.9321 67.686 73.8021 67.14C73.6721 66.5853 73.6071 66.0133 73.6071 65.424V60.77H74.5041V65.424C74.5041 65.9093 74.5517 66.3817 74.6471 66.841C74.7511 67.2917 74.9157 67.699 75.1411 68.063C75.3664 68.427 75.6697 68.7173 76.0511 68.934C76.4324 69.142 76.9091 69.246 77.4811 69.246C78.0704 69.246 78.5557 69.1377 78.9371 68.921C79.3271 68.7043 79.6347 68.414 79.8601 68.05C80.0854 67.6773 80.2414 67.2657 80.3281 66.815C80.4234 66.3557 80.4711 65.892 80.4711 65.424V60.77H81.3811V65.424C81.3811 66.0393 81.3117 66.6287 81.1731 67.192C81.0344 67.7467 80.8091 68.2407 80.4971 68.674C80.1937 69.1073 79.7951 69.4497 79.3011 69.701C78.8071 69.9437 78.2047 70.065 77.4941 70.065ZM83.5506 70V60.77H84.4606V70H83.5506ZM86.7752 70V60.77H87.6852V69.194H93.0152V70H86.7752ZM94.3543 70V60.77H95.2643V69.194H100.594V70H94.3543ZM104.793 60.77H105.56L109.395 70H108.433L107.237 67.114H103.09L101.907 70H100.932L104.793 60.77ZM107.029 66.399L105.17 61.836L103.285 66.399H107.029ZM110.719 70V60.77H113.852C114.831 60.77 115.646 60.978 116.296 61.394C116.954 61.8013 117.448 62.356 117.778 63.058C118.107 63.7513 118.272 64.5227 118.272 65.372C118.272 66.308 118.09 67.1227 117.726 67.816C117.362 68.5093 116.85 69.0467 116.192 69.428C115.533 69.8093 114.753 70 113.852 70H110.719ZM117.362 65.372C117.362 64.6353 117.223 63.981 116.946 63.409C116.677 62.837 116.278 62.3907 115.75 62.07C115.23 61.7407 114.597 61.576 113.852 61.576H111.629V69.194H113.852C114.614 69.194 115.256 69.025 115.776 68.687C116.296 68.349 116.69 67.894 116.959 67.322C117.227 66.75 117.362 66.1 117.362 65.372ZM123.729 70.065C123.079 70.065 122.49 69.935 121.961 69.675C121.433 69.4063 120.978 69.051 120.596 68.609C120.215 68.167 119.92 67.6687 119.712 67.114C119.504 66.5507 119.4 65.9743 119.4 65.385C119.4 64.7697 119.509 64.1847 119.725 63.63C119.942 63.0667 120.245 62.5683 120.635 62.135C121.034 61.693 121.498 61.3463 122.026 61.095C122.555 60.835 123.127 60.705 123.742 60.705C124.384 60.705 124.969 60.8393 125.497 61.108C126.026 61.3767 126.481 61.7363 126.862 62.187C127.252 62.6377 127.547 63.1403 127.746 63.695C127.954 64.2497 128.058 64.8173 128.058 65.398C128.058 66.0133 127.95 66.6027 127.733 67.166C127.517 67.7207 127.213 68.219 126.823 68.661C126.433 69.0943 125.974 69.4367 125.445 69.688C124.917 69.9393 124.345 70.065 123.729 70.065ZM120.31 65.385C120.31 65.8877 120.393 66.3687 120.557 66.828C120.722 67.2873 120.956 67.699 121.259 68.063C121.563 68.427 121.922 68.7173 122.338 68.934C122.763 69.142 123.227 69.246 123.729 69.246C124.258 69.246 124.73 69.1377 125.146 68.921C125.571 68.6957 125.931 68.3967 126.225 68.024C126.529 67.6513 126.758 67.2397 126.914 66.789C127.07 66.3297 127.148 65.8617 127.148 65.385C127.148 64.8823 127.066 64.4013 126.901 63.942C126.737 63.4827 126.498 63.071 126.186 62.707C125.883 62.343 125.523 62.057 125.107 61.849C124.691 61.641 124.232 61.537 123.729 61.537C123.209 61.537 122.737 61.6453 122.312 61.862C121.896 62.0787 121.537 62.3733 121.233 62.746C120.939 63.11 120.709 63.5217 120.544 63.981C120.388 64.4403 120.31 64.9083 120.31 65.385ZM129.774 70V60.77H133.674C134.073 60.77 134.437 60.8523 134.766 61.017C135.104 61.1817 135.395 61.407 135.637 61.693C135.88 61.9703 136.066 62.2823 136.196 62.629C136.335 62.967 136.404 63.3137 136.404 63.669C136.404 64.1197 136.318 64.54 136.144 64.93C135.98 65.32 135.741 65.6493 135.429 65.918C135.117 66.1867 134.758 66.36 134.35 66.438L136.612 70H135.585L133.414 66.594H130.684V70H129.774ZM130.684 65.788H133.7C134.064 65.788 134.381 65.6883 134.649 65.489C134.918 65.281 135.126 65.0167 135.273 64.696C135.421 64.3753 135.494 64.033 135.494 63.669C135.494 63.2963 135.408 62.954 135.234 62.642C135.07 62.3213 134.844 62.0657 134.558 61.875C134.272 61.6757 133.96 61.576 133.622 61.576H130.684V65.788ZM141.089 60.77H141.856L145.691 70H144.729L143.533 67.114H139.386L138.203 70H137.228L141.089 60.77ZM143.325 66.399L141.466 61.836L139.581 66.399H143.325ZM149.922 70V60.77H153.744C154.142 60.77 154.506 60.8523 154.836 61.017C155.174 61.1817 155.464 61.407 155.707 61.693C155.958 61.9703 156.149 62.2823 156.279 62.629C156.417 62.967 156.487 63.3137 156.487 63.669C156.487 64.1717 156.374 64.6483 156.149 65.099C155.923 65.541 155.611 65.9007 155.213 66.178C154.814 66.4553 154.35 66.594 153.822 66.594H150.832V70H149.922ZM150.832 65.788H153.783C154.147 65.788 154.463 65.6883 154.732 65.489C155 65.2897 155.208 65.0297 155.356 64.709C155.503 64.3883 155.577 64.0417 155.577 63.669C155.577 63.2877 155.49 62.941 155.317 62.629C155.143 62.3083 154.914 62.0527 154.628 61.862C154.35 61.6713 154.043 61.576 153.705 61.576H150.832V65.788ZM158.009 70V60.77H161.909C162.307 60.77 162.671 60.8523 163.001 61.017C163.339 61.1817 163.629 61.407 163.872 61.693C164.114 61.9703 164.301 62.2823 164.431 62.629C164.569 62.967 164.639 63.3137 164.639 63.669C164.639 64.1197 164.552 64.54 164.379 64.93C164.214 65.32 163.976 65.6493 163.664 65.918C163.352 66.1867 162.992 66.36 162.585 66.438L164.847 70H163.82L161.649 66.594H158.919V70H158.009ZM158.919 65.788H161.935C162.299 65.788 162.615 65.6883 162.884 65.489C163.152 65.281 163.36 65.0167 163.508 64.696C163.655 64.3753 163.729 64.033 163.729 63.669C163.729 63.2963 163.642 62.954 163.469 62.642C163.304 62.3213 163.079 62.0657 162.793 61.875C162.507 61.6757 162.195 61.576 161.857 61.576H158.919V65.788ZM170.22 70.065C169.57 70.065 168.98 69.935 168.452 69.675C167.923 69.4063 167.468 69.051 167.087 68.609C166.705 68.167 166.411 67.6687 166.203 67.114C165.995 66.5507 165.891 65.9743 165.891 65.385C165.891 64.7697 165.999 64.1847 166.216 63.63C166.432 63.0667 166.736 62.5683 167.126 62.135C167.524 61.693 167.988 61.3463 168.517 61.095C169.045 60.835 169.617 60.705 170.233 60.705C170.874 60.705 171.459 60.8393 171.988 61.108C172.516 61.3767 172.971 61.7363 173.353 62.187C173.743 62.6377 174.037 63.1403 174.237 63.695C174.445 64.2497 174.549 64.8173 174.549 65.398C174.549 66.0133 174.44 66.6027 174.224 67.166C174.007 67.7207 173.704 68.219 173.314 68.661C172.924 69.0943 172.464 69.4367 171.936 69.688C171.407 69.9393 170.835 70.065 170.22 70.065ZM166.801 65.385C166.801 65.8877 166.883 66.3687 167.048 66.828C167.212 67.2873 167.446 67.699 167.75 68.063C168.053 68.427 168.413 68.7173 168.829 68.934C169.253 69.142 169.717 69.246 170.22 69.246C170.748 69.246 171.221 69.1377 171.637 68.921C172.061 68.6957 172.421 68.3967 172.716 68.024C173.019 67.6513 173.249 67.2397 173.405 66.789C173.561 66.3297 173.639 65.8617 173.639 65.385C173.639 64.8823 173.556 64.4013 173.392 63.942C173.227 63.4827 172.989 63.071 172.677 62.707C172.373 62.343 172.014 62.057 171.598 61.849C171.182 61.641 170.722 61.537 170.22 61.537C169.7 61.537 169.227 61.6453 168.803 61.862C168.387 62.0787 168.027 62.3733 167.724 62.746C167.429 63.11 167.199 63.5217 167.035 63.981C166.879 64.4403 166.801 64.9083 166.801 65.385ZM176.264 70V60.77H182.322V61.576H177.174V64.969H181.516V65.723H177.174V70H176.264ZM190.121 69.194V70H183.92V60.77H190.004V61.576H184.83V64.904H189.341V65.671H184.83V69.194H190.121ZM197.186 62.499C196.926 62.213 196.579 61.979 196.146 61.797C195.712 61.6063 195.218 61.511 194.664 61.511C193.849 61.511 193.255 61.667 192.883 61.979C192.51 62.2823 192.324 62.6983 192.324 63.227C192.324 63.591 192.415 63.877 192.597 64.085C192.779 64.293 193.056 64.4663 193.429 64.605C193.81 64.735 194.295 64.865 194.885 64.995C195.543 65.1337 196.111 65.2983 196.588 65.489C197.064 65.6797 197.433 65.9397 197.693 66.269C197.953 66.5897 198.083 67.0273 198.083 67.582C198.083 68.1453 197.94 68.6133 197.654 68.986C197.368 69.3587 196.973 69.636 196.471 69.818C195.968 69.9913 195.396 70.078 194.755 70.078C193.316 70.078 192.081 69.6317 191.05 68.739L191.505 67.998C191.834 68.3447 192.285 68.6437 192.857 68.895C193.437 69.1463 194.079 69.272 194.781 69.272C195.509 69.272 196.081 69.1377 196.497 68.869C196.913 68.6003 197.121 68.2017 197.121 67.673C197.121 67.2917 197.017 66.9883 196.809 66.763C196.601 66.529 196.289 66.3383 195.873 66.191C195.457 66.0437 194.945 65.9007 194.339 65.762C193.697 65.6147 193.156 65.45 192.714 65.268C192.28 65.086 191.951 64.8477 191.726 64.553C191.5 64.2583 191.388 63.8597 191.388 63.357C191.388 62.785 191.526 62.304 191.804 61.914C192.09 61.5153 192.48 61.2163 192.974 61.017C193.468 60.809 194.035 60.705 194.677 60.705C195.283 60.705 195.829 60.8003 196.315 60.991C196.8 61.173 197.238 61.433 197.628 61.771L197.186 62.499ZM199.687 70V60.77H200.597V70H199.687ZM206.63 70.065C205.98 70.065 205.391 69.935 204.862 69.675C204.333 69.4063 203.878 69.051 203.497 68.609C203.116 68.167 202.821 67.6687 202.613 67.114C202.405 66.5507 202.301 65.9743 202.301 65.385C202.301 64.7697 202.409 64.1847 202.626 63.63C202.843 63.0667 203.146 62.5683 203.536 62.135C203.935 61.693 204.398 61.3463 204.927 61.095C205.456 60.835 206.028 60.705 206.643 60.705C207.284 60.705 207.869 60.8393 208.398 61.108C208.927 61.3767 209.382 61.7363 209.763 62.187C210.153 62.6377 210.448 63.1403 210.647 63.695C210.855 64.2497 210.959 64.8173 210.959 65.398C210.959 66.0133 210.851 66.6027 210.634 67.166C210.417 67.7207 210.114 68.219 209.724 68.661C209.334 69.0943 208.875 69.4367 208.346 69.688C207.817 69.9393 207.245 70.065 206.63 70.065ZM203.211 65.385C203.211 65.8877 203.293 66.3687 203.458 66.828C203.623 67.2873 203.857 67.699 204.16 68.063C204.463 68.427 204.823 68.7173 205.239 68.934C205.664 69.142 206.127 69.246 206.63 69.246C207.159 69.246 207.631 69.1377 208.047 68.921C208.472 68.6957 208.831 68.3967 209.126 68.024C209.429 67.6513 209.659 67.2397 209.815 66.789C209.971 66.3297 210.049 65.8617 210.049 65.385C210.049 64.8823 209.967 64.4013 209.802 63.942C209.637 63.4827 209.399 63.071 209.087 62.707C208.784 62.343 208.424 62.057 208.008 61.849C207.592 61.641 207.133 61.537 206.63 61.537C206.11 61.537 205.638 61.6453 205.213 61.862C204.797 62.0787 204.437 62.3733 204.134 62.746C203.839 63.11 203.61 63.5217 203.445 63.981C203.289 64.4403 203.211 64.9083 203.211 65.385ZM213.585 62.447V70H212.675V60.77H213.429L219.487 68.466V60.783H220.397V70H219.552L213.585 62.447ZM225.577 60.77H226.344L230.179 70H229.217L228.021 67.114H223.874L222.691 70H221.716L225.577 60.77ZM227.813 66.399L225.954 61.836L224.069 66.399H227.813ZM231.502 70V60.77H232.412V69.194H237.742V70H231.502Z" fill="black"/>
</svg>
